<?xml version="1.0" encoding="iso-8859-1"?>
<!-- Generator: Adobe Illustrator 19.0.0, SVG Export Plug-In . SVG Version: 6.00 Build 0)  -->
<svg version="1.1" id="Layer_1" xmlns="http://www.w3.org/2000/svg" xmlns:xlink="http://www.w3.org/1999/xlink" width="24" height="24"
	 viewBox="-237 239 24 24" style="enable-background:new -237 239 24 24;" xml:space="preserve">
<path style="fill:none;" d="M-237,239h24v24h-24V239z"/>
<g id="XMLID_28_">
	<path id="XMLID_31_" d="M-225.822,245.072c1.064,0,1.928-0.863,1.928-1.928c0-1.065-0.864-1.929-1.928-1.929
		c-1.065,0-1.929,0.863-1.929,1.929C-227.751,244.209-226.887,245.072-225.822,245.072z"/>
	<path id="XMLID_30_" d="M-222.842,256c-0.512,1.779-2.153,3.086-4.095,3.086c-2.352,0-4.265-1.913-4.265-4.264
		c0-1.74,1.05-3.238,2.548-3.9v-1.808c-2.454,0.739-4.247,3.017-4.247,5.708c0,3.288,2.675,5.963,5.963,5.963
		c2.396,0,4.461-1.424,5.408-3.467l-0.673-1.323C-222.391,255.996-222.61,255.998-222.842,256z"/>
	<path id="XMLID_29_" d="M-217.224,258.289l-2.583-5.078c-0.193-0.38-0.583-0.619-1.009-0.619h-3.308v-0.754h2.847
		c0.284,0,0.523-0.149,0.678-0.363c0.1-0.139,0.172-0.301,0.172-0.487c0-0.469-0.38-0.849-0.849-0.849h-1.715h-1.132v-2.559
		c0-0.704-0.522-1.699-1.698-1.699c-0.938,0-1.699,0.761-1.699,1.699v5.544c0,0.957,0.776,1.733,1.733,1.733h3.113h1.165l2.268,4.46
		c0.199,0.393,0.597,0.619,1.01,0.619c0.173,0,0.348-0.04,0.512-0.123C-217.161,259.529-216.939,258.847-217.224,258.289z"/>
</g>
</svg>
