<svg width="30" height="30" viewBox="0 0 30 30" fill="none" xmlns="http://www.w3.org/2000/svg">
<path d="M14.9883 2.8125C8.26172 2.8125 2.8125 8.27344 2.8125 15C2.8125 21.7266 8.26172 27.1875 14.9883 27.1875C21.7266 27.1875 27.1875 21.7266 27.1875 15C27.1875 8.27344 21.7266 2.8125 14.9883 2.8125ZM15 24.75C9.61523 24.75 5.25 20.3848 5.25 15C5.25 9.61523 9.61523 5.25 15 5.25C20.3848 5.25 24.75 9.61523 24.75 15C24.75 20.3848 20.3848 24.75 15 24.75Z" fill="#444444" fill-opacity="0.9"/>
<path d="M15.6094 8.90625H13.7812V16.2187L20.1797 20.0566L21.0938 18.5566L15.6094 15.3047V8.90625Z" fill="#444444" fill-opacity="0.9"/>
</svg>
