<svg width="28" height="28" viewBox="0 0 28 28" fill="none" xmlns="http://www.w3.org/2000/svg">
<path d="M22.2633 7.54141C20.3547 5.26641 17.8172 3.86094 15.0883 3.57109C14.9789 3.02969 14.5305 2.625 14 2.625C13.4695 2.625 13.0211 3.02422 12.9117 3.56562C10.1445 3.85 7.58516 5.22266 5.6875 7.45937C3.72969 9.76719 2.64688 12.1352 2.63594 15.318C2.63047 15.3453 2.625 15.3836 2.625 15.4328C2.63047 15.6078 2.77266 15.75 2.94219 15.75H3.11172C3.25391 15.75 3.37969 15.6516 3.41797 15.5094C3.56563 14.957 3.87734 14.4648 4.29297 14.1148C4.71406 13.7594 5.21719 13.5734 5.74766 13.5734C6.27266 13.5734 6.77578 13.7594 7.19688 14.1203C7.6125 14.4703 7.91875 14.9625 8.07188 15.5148C8.11016 15.657 8.23594 15.7555 8.37812 15.7555H8.64062C8.78281 15.7555 8.90859 15.657 8.94688 15.5148C9.25859 14.3719 10.2211 13.5789 11.2875 13.5789C12.0969 13.5789 12.8625 14.0383 13.3055 14.7766V22.8594C13.3055 23.4008 12.868 23.8438 12.3375 23.8438C11.807 23.8438 11.375 23.4008 11.375 22.8594C11.375 22.4383 11.0414 22.0938 10.6258 22.0938C10.2156 22.0938 9.88203 22.4383 9.88203 22.8594C9.88203 24.2484 10.9867 25.375 12.3375 25.375C13.6938 25.375 14.793 24.2484 14.793 22.8594V14.8094C15.2414 14.0328 15.9906 13.5734 16.8109 13.5734C17.3359 13.5734 17.8336 13.7594 18.2547 14.1148C18.6648 14.4648 18.9711 14.957 19.1242 15.5094C19.1625 15.6516 19.2883 15.75 19.4305 15.75H19.693C19.8352 15.75 19.9609 15.6516 19.9992 15.5094C20.1469 14.957 20.4586 14.4594 20.8742 14.1094C21.2953 13.7539 21.7984 13.5625 22.3289 13.5625C22.8594 13.5625 23.368 13.7484 23.7891 14.1094C24.2047 14.4594 24.5109 14.957 24.6586 15.5094C24.6969 15.6516 24.8227 15.75 24.9648 15.75H25.0469C25.1344 15.75 25.2164 15.7172 25.2766 15.6516C25.3367 15.5859 25.3695 15.5039 25.3695 15.4164C25.3258 12.25 24.2211 9.87656 22.2633 7.54141Z" fill="#444444"/>
</svg>
