<svg width="28" height="28" viewBox="0 0 28 28" fill="none" xmlns="http://www.w3.org/2000/svg">
<path d="M9.01532 15.3091L12.3969 12.0142L4.03154 3.92139C2.19261 5.71317 2.19261 8.66153 4.03154 10.4533L9.01532 15.3091Z" fill="#444444"/>
<path d="M17.0836 13.2279C18.9231 14.0373 21.4741 13.4593 23.3131 11.6095C25.5674 9.41297 26.0425 6.23355 24.2626 4.55699C22.5419 2.82285 19.2789 3.28578 17.0245 5.48236C15.1259 7.33216 14.5326 9.81776 15.3634 11.5519C12.7527 14.1533 3.79419 22.8817 3.79419 22.8817L5.45543 24.5L13.6427 16.523L21.8298 24.5L23.4909 22.8817L15.3037 14.9045L17.0836 13.2279Z" fill="#444444"/>
</svg>
