<svg width="26" height="26" viewBox="0 0 26 26" fill="none" xmlns="http://www.w3.org/2000/svg">
<path d="M9.80305 5.18166L12.0953 3.96716V15.5058C12.0953 16.0056 12.5004 16.4108 13.0002 16.4108C13.4999 16.4108 13.9052 16.0056 13.9052 15.5058V3.93133L16.1952 5.17334C16.5146 5.34663 16.9141 5.2356 17.098 4.92213C17.4002 4.40678 17.7798 3.57208 17.7798 2.63041C17.7798 1.6883 17.4003 0.853594 17.0981 0.338149C16.9141 0.0243215 16.515 -0.0865316 16.1952 0.0869422L13.0443 1.79643L9.80305 0.0786169C9.48452 -0.0901513 9.08934 0.0212448 8.90654 0.331905C8.60348 0.846807 8.2207 1.68449 8.2207 2.63041C8.2207 3.57588 8.60358 4.41347 8.90654 4.92837C9.08961 5.23931 9.48416 5.35061 9.80305 5.18166Z" fill="#444444"/>
<path d="M23.9401 4.13386L20.4966 2.91602C20.3007 2.8467 20.0849 2.86018 19.8992 2.95321C19.7134 3.04623 19.5734 3.21093 19.5115 3.40938L13.6497 22.2003C13.575 22.4397 13.3533 22.6027 13.1026 22.6027C12.8518 22.6027 12.6301 22.4397 12.5554 22.2003L6.6899 3.40006C6.62846 3.20324 6.49019 3.03954 6.3064 2.94606C6.12261 2.85258 5.90886 2.83729 5.71367 2.90371L2.0747 4.14038C1.56831 4.31249 1.22778 4.78794 1.22778 5.32275V24.7512C1.22778 25.4409 1.78694 26 2.47658 26H23.5238C24.2135 26 24.7725 25.4409 24.7725 24.7512V5.31117C24.7725 4.78197 24.4391 4.31032 23.9401 4.13386ZM22.0861 22.089C22.0861 22.3579 21.8682 22.5758 21.5993 22.5758H16.9707C16.7019 22.5758 16.484 22.3579 16.484 22.089V21.0903C16.484 20.8215 16.7019 20.6036 16.9707 20.6036H21.5993C21.8682 20.6036 22.0861 20.8215 22.0861 21.0903V22.089Z" fill="#444444"/>
</svg>
