<svg width="28" height="28" viewBox="0 0 28 28" fill="none" xmlns="http://www.w3.org/2000/svg">
<path d="M14 12.6524C13.2649 12.6524 12.6523 13.2649 12.6523 14C12.6523 14.7351 13.2648 15.3477 14 15.3477C14.7352 15.3477 15.3477 14.7352 15.3477 14C15.3477 13.2648 14.7351 12.6524 14 12.6524ZM14 1.75C7.2625 1.75 1.75 7.2625 1.75 14C1.75 20.7375 7.2625 26.25 14 26.25C20.7375 26.25 26.25 20.7375 26.25 14C26.25 7.2625 20.7375 1.75 14 1.75ZM16.6952 16.6952L6.65 21.35L11.3048 11.3051L21.35 6.65L16.6952 16.6952Z" fill="#444444"/>
</svg>
