<svg width="28" height="28" viewBox="0 0 28 28" fill="none" xmlns="http://www.w3.org/2000/svg">
<path d="M17.9867 2.8C17.8773 2.49922 17.6039 2.29688 17.2812 2.29688H10.7188C10.3906 2.29688 10.1227 2.49922 10.0078 2.8C9.49922 4.16719 8.3125 7.56328 8.3125 9.625V9.8875C8.3125 10.9375 8.3125 12.3703 9.86562 13.9617C10.2211 14.3281 10.6477 14.6672 11.0961 15.0281C12.1406 15.8648 13.218 16.7289 13.218 17.7734V24.0625C13.218 24.1227 13.1687 24.1719 13.1086 24.1719H9.98594C9.55391 24.1719 9.20391 24.5164 9.20391 24.9375C9.20391 25.3586 9.55391 25.7031 9.98594 25.7031H18.0141C18.4461 25.7031 18.7961 25.3586 18.7961 24.9375C18.7961 24.5164 18.4461 24.1719 18.0141 24.1719H14.8914C14.8312 24.1719 14.782 24.1227 14.782 24.0625V17.7734C14.782 16.7289 15.8594 15.8648 16.9039 15.0281C17.3523 14.6672 17.7734 14.3281 18.1344 13.9617C19.6875 12.3703 19.6875 10.9375 19.6875 9.8875V9.625C19.6875 7.57422 18.5008 4.16719 17.9867 2.8ZM17.9102 8.38359C17.8992 8.4 17.8719 8.42188 17.8227 8.42188H10.1773C10.1336 8.42188 10.1063 8.39453 10.0898 8.38359C10.0789 8.36719 10.057 8.33984 10.068 8.29063C10.3469 6.86328 10.8773 5.03125 11.2492 3.90469C11.2656 3.86094 11.3094 3.82812 11.3531 3.82812H16.6469C16.6961 3.82812 16.7398 3.86094 16.7508 3.90469C17.1172 5.03672 17.6477 6.86328 17.932 8.29063C17.943 8.33438 17.9211 8.36719 17.9102 8.38359Z" fill="black"/>
</svg>
