<svg width="30" height="30" viewBox="0 0 30 30" fill="none" xmlns="http://www.w3.org/2000/svg">
<path d="M25.8984 6.26953V14.5312L13.4297 26.4668C13.8984 26.9355 14.6484 27.1875 15.1172 27.1875C15.5859 27.1875 16.4531 26.9707 16.957 26.4668L28.125 15.9375V8.4375L25.8984 6.26953Z" fill="#444444"/>
<path d="M22.4999 2.8125H13.1249L2.59565 13.8047C2.1269 14.2734 1.89252 14.8477 1.87494 15.4688C1.85736 16.1309 2.09174 16.834 2.59565 17.3379L9.84955 24.5801C10.3183 25.0488 11.0683 25.3125 11.5371 25.3125C12.0058 25.3125 12.8671 25.084 13.371 24.5801L24.3749 14.0625V4.6875L22.4999 2.8125ZM20.7011 8.83008C19.4296 9.1875 18.2812 8.24414 18.2812 7.03125C18.2812 5.99414 19.1191 5.15625 20.1562 5.15625C21.3691 5.15625 22.3124 6.30469 21.955 7.57617C21.7851 8.17969 21.3046 8.66016 20.7011 8.83008Z" fill="#444444"/>
</svg>
