<svg width="28" height="28" viewBox="0 0 28 28" fill="none" xmlns="http://www.w3.org/2000/svg">
<path d="M14.0001 9.33329C11.4217 9.33329 9.33341 11.4216 9.33341 14C9.33341 16.5783 11.4217 18.6666 14.0001 18.6666C16.5784 18.6666 18.6667 16.5783 18.6667 14C18.6667 11.4216 16.5784 9.33329 14.0001 9.33329ZM24.4301 12.8333C23.8934 7.96829 20.0317 4.10663 15.1667 3.56996V1.16663H12.8334V3.56996C7.96841 4.10663 4.10675 7.96829 3.57008 12.8333H1.16675V15.1666H3.57008C4.10675 20.0316 7.96841 23.8933 12.8334 24.43V26.8333H15.1667V24.43C20.0317 23.8933 23.8934 20.0316 24.4301 15.1666H26.8334V12.8333H24.4301ZM14.0001 22.1666C9.48508 22.1666 5.83341 18.515 5.83341 14C5.83341 9.48496 9.48508 5.83329 14.0001 5.83329C18.5151 5.83329 22.1667 9.48496 22.1667 14C22.1667 18.515 18.5151 22.1666 14.0001 22.1666Z" fill="#444444"/>
</svg>
