<svg width="28" height="28" viewBox="0 0 28 28" fill="none" xmlns="http://www.w3.org/2000/svg">
<path d="M25.2545 9.93672C25.3256 9.84922 25.3201 9.72891 25.2436 9.64687C24.6147 8.98516 21.8912 6.16328 20.3709 5.06953C19.2498 4.26562 18.1561 3.5 16.953 3.5C15.7498 3.5 15.7498 3.9375 13.9998 3.9375C12.2498 3.9375 12.2498 3.5 11.0467 3.5C9.84358 3.5 8.74983 4.26562 7.62874 5.06953C6.10842 6.16328 3.38499 8.98516 2.75608 9.64687C2.67952 9.72891 2.67405 9.84922 2.74514 9.93672L6.11936 13.4367C6.25061 13.5953 6.50764 13.5023 6.50764 13.3V10.8445C6.50764 10.5984 6.68264 10.3797 6.92327 10.3414C7.22952 10.2922 7.49202 10.5328 7.49202 10.8281V24.0625C7.49202 24.3031 7.68889 24.5 7.92952 24.5H20.0701C20.3108 24.5 20.5076 24.3031 20.5076 24.0625V10.8445C20.5076 10.5984 20.6826 10.3797 20.9233 10.3414C21.2295 10.2922 21.492 10.5328 21.492 10.8281V13.3C21.492 13.5078 21.749 13.5953 21.8803 13.4367L25.2545 9.93672ZM13.9998 7.82031C12.3592 7.82031 11.0467 7.12578 11.0467 5.85156C11.0467 4.21094 12.3592 5.26641 13.9998 5.26641C15.6295 5.26641 16.953 4.21094 16.953 5.85156C16.953 7.12578 15.6295 7.82031 13.9998 7.82031Z" fill="#444444"/>
</svg>
