<svg width="30" height="30" viewBox="0 0 30 30" fill="none" xmlns="http://www.w3.org/2000/svg">
<path d="M25 19.375C23.4944 19.375 21.9978 19.1432 20.5627 18.6878C20.1251 18.5626 19.6252 18.6249 19.3128 19.0003L16.5625 21.7499C12.9998 19.9378 10.1251 17.0624 8.31234 13.4998L11.0627 10.7501C11.3751 10.4377 11.4999 9.93779 11.3751 9.50016C10.8749 8.06279 10.625 6.5625 10.625 4.99998C10.625 4.31273 10.0625 3.75 9.375 3.75H4.99998C4.31244 3.75 3.75 4.31273 3.75 4.99998C3.75 16.7498 13.2502 26.25 25 26.25C25.6873 26.25 26.25 25.6873 26.25 25V20.625C26.25 19.9378 25.6873 19.375 25 19.375Z" fill="#CCCCCC"/>
</svg>
