<svg width="30" height="30" viewBox="0 0 30 30" fill="none" xmlns="http://www.w3.org/2000/svg">
<path d="M15 2.8125C21.7031 2.8125 27.1875 8.29688 27.1875 15C27.1875 21.7031 21.7031 27.1875 15 27.1875C8.29688 27.1875 2.8125 21.7031 2.8125 15C2.8125 8.29688 8.29688 2.8125 15 2.8125ZM15 6.46875C12.9902 6.46875 11.3438 8.11523 11.3438 10.125C11.3438 12.1348 12.9902 13.7812 15 13.7812C17.0098 13.7812 18.6562 12.1348 18.6562 10.125C18.6562 8.11523 17.0098 6.46875 15 6.46875ZM15 24.0703C18.0469 24.0703 20.7305 22.4883 22.3125 20.168C22.2539 17.7305 17.4375 16.3887 15 16.3887C12.5625 16.3887 7.74609 17.7305 7.6875 20.168C9.26953 22.4824 11.9531 24.0703 15 24.0703Z" fill="#CCCCCC"/>
</svg>
