<svg width="28" height="28" viewBox="0 0 28 28" fill="none" xmlns="http://www.w3.org/2000/svg">
<path d="M22.75 10.7297C21.9953 9.04531 20.0703 5.6875 17.2812 5.6875H10.7188C7.92969 5.6875 6.08125 8.93594 5.25 10.7297C3.9375 11.9875 2.625 13.2289 2.625 15.3672V19.5234C2.625 19.7258 2.76719 19.9062 2.96406 19.95C3.77891 20.1359 6.36562 20.5078 14 20.5078C21.6344 20.5078 24.2211 20.1359 25.0359 19.95C25.2328 19.9062 25.375 19.7258 25.375 19.5234V15.3672C25.375 13.2344 24.1555 11.9164 22.75 10.7297ZM10.3906 7H17.6094C19.8242 7 21 10.2812 21 10.8281H7C7 10.2812 8.47656 7 10.3906 7ZM6.125 18.1398C5.15703 18.1398 4.375 17.3578 4.375 16.3898C4.375 15.4219 5.15703 14.6398 6.125 14.6398C7.09297 14.6398 7.875 15.4219 7.875 16.3898C7.875 17.3523 7.09297 18.1398 6.125 18.1398ZM17.9375 16.4062C17.9375 16.8875 17.5437 17.2812 17.0625 17.2812H10.9375C10.4563 17.2812 10.0625 16.8875 10.0625 16.4062C10.0625 15.925 10.4563 15.5312 10.9375 15.5312H17.0625C17.5437 15.5312 17.9375 15.925 17.9375 16.4062ZM21.875 18.1562C20.907 18.1562 20.125 17.3742 20.125 16.4062C20.125 15.4383 20.907 14.6562 21.875 14.6562C22.843 14.6562 23.625 15.4383 23.625 16.4062C23.625 17.3742 22.843 18.1562 21.875 18.1562ZM8.75 21C6.13047 21 3.5 20.7266 3.5 20.7266C3.5 21.6562 3.48359 22.3125 3.82812 22.3125H8.47656C8.82109 22.3125 8.75 21.5906 8.75 21ZM19.25 21C21.875 21 24.5 20.7266 24.5 20.7266C24.5 21.6016 24.6094 22.3125 24.2266 22.3125H19.5234C19.157 22.3125 19.25 21.5742 19.25 21Z" fill="black"/>
</svg>
